PathFileType	4	(X/Y/Z)	RBDS03\RBDS03runT45.trc
DataRate	CameraRate	NumFrames	NumMarkers	Units	OrigDataRate	OrigDataStartFrame	OrigNumFrames
150.000000	150.000000	5	33	mm	150.000000	2250	4500
Frame#	Time	L.ASIS			L.Heel.Bottom			L.Heel.Lateral			L.Heel.Top			L.Iliac.Crest			L.MT1			L.MT5			L.PSIS			L.Shank.Bottom.Lateral			L.Shank.Bottom.Medial			L.Shank.Top.Lateral			L.Shank.Top.Medial			L.Thigh.Bottom.Lateral			L.Thigh.Bottom.Medial			L.Thigh.Top.Lateral			L.Thigh.Top.Medial			R.ASIS			R.ASY			R.Heel.Bottom			R.Heel.Lateral			R.Heel.Top			R.Iliac.Crest			R.MT1			R.MT5			R.PSIS			R.Shank.Bottom.Lateral			R.Shank.Bottom.Medial			R.Shank.Top.Lateral			R.Shank.Top.Medial			R.Thigh.Bottom.Lateral			R.Thigh.Bottom.Medial			R.Thigh.Top.Lateral			R.Thigh.Top.Medial			
		X1	Y1	Z1	X2	Y2	Z2	X3	Y3	Z3	X4	Y4	Z4	X5	Y5	Z5	X6	Y6	Z6	X7	Y7	Z7	X8	Y8	Z8	X9	Y9	Z9	X10	Y10	Z10	X11	Y11	Z11	X12	Y12	Z12	X13	Y13	Z13	X14	Y14	Z14	X15	Y15	Z15	X16	Y16	Z16	X17	Y17	Z17	X18	Y18	Z18	X19	Y19	Z19	X20	Y20	Z20	X21	Y21	Z21	X22	Y22	Z22	X23	Y23	Z23	X24	Y24	Z24	X25	Y25	Z25	X26	Y26	Z26	X27	Y27	Z27	X28	Y28	Z28	X29	Y29	Z29	X30	Y30	Z30	X31	Y31	Z31	X32	Y32	Z32	X33	Y33	Z33	

2251	15	2399.247609270422	1003.121638986077	970.107640873741	2357.644543200446	33.2577418937678	1086.224457553396	2391.274528608231	47.4489121503677	1040.183503104941	2371.099286767619	82.23112627333579	1089.581707868185	2315.833830375761	1063.04693127262	940.0791056776748	2584.056790895523	51.48839062498809	1123.818864059482	2550.508316897599	43.81677546856516	1019.172046484554	2245.514353204569	1024.706312877607	1067.443343557755	2450.400642697628	158.3926865733718	1024.919936541356	2404.382257610668	169.9895305213088	1051.387513968979	2454.756956845903	233.6319365907561	999.2035827847692	2409.72402444481	246.5531543689735	1025.667255504174	2466.482487424538	584.7283385388747	959.6360231946907	2408.98811149126	569.8988682215976	1002.677860512853	2420.991679648249	681.3327971517754	932.6533991707948	2362.977211509921	664.6919458314886	967.852759915349	2444.830697781398	987.4978167503249	1176.235339176035	-320451432.3758282	66045735.91975773	-189351407.1832375	1916.991685365625	689.3482948126275	1106.472739254442	1918.522910404838	660.0730932222162	1161.839082359469	1951.20957228937	654.2251515548699	1112.128646866524	2412.702527442359	1065.626674024681	1223.565138483335	1804.91904746753	503.4164768216248	1123.049805220572	1821.512890572221	551.5268420766437	1226.950705000064	2267.335831787222	1021.671405097087	1148.911108129847	1989.456695612833	593.0970249849385	1189.401934795666	2004.889573252455	616.4862628540845	1145.562863662648	2071.042553851589	578.346332286	1208.033208268264	2082.767237576766	604.3442931889853	1162.866217792357	2367.583259092399	553.7839279766276	1247.375735142916	2301.215956673826	550.9908248737613	1217.794606617955	2355.107944776476	662.891886809924	1262.158009280295	2291.343363439582	658.9029525967095	1236.471076185281	
2252	15.00666666666667	2394.720143439456	997.0960877009769	970.3637900644476	2328.28976066772	34.90711017120954	1087.157131216182	2362.056426605007	49.57234098136099	1041.475455701441	2342.973192031169	83.65603203354289	1091.844960990139	2311.958824972678	1055.098161822272	940.6292670148919	2555.151486228223	48.24252176093876	1125.023838048835	2521.275320421777	43.62118354715111	1020.315643805419	2241.464029246693	1019.619771655396	1068.789975591866	2428.640016764867	157.4520957335602	1027.514433747752	2382.540837752064	171.7812526012626	1052.644372876432	2437.670259396808	232.1501409025727	1001.092880943317	2392.650238965956	247.7524409485342	1026.315064686338	2461.758226725469	580.1944861773047	959.4882460029812	2404.701421766233	565.8066153543903	1003.298247463223	2416.351252586825	676.9098972487513	932.458935278927	2358.63802235565	660.6114918571619	968.360778279216	2440.800024161886	981.5192532840648	1176.361174250333	-320880796.7646259	66136116.16427229	-189604541.5520406	1934.270704664441	685.8337771931772	1111.81534176641	1937.675764981325	655.2183657645776	1166.28900307932	1969.062468576401	651.1153092932468	1115.794053656604	2409.062764616886	1057.706939703775	1224.948304703731	1824.843544674114	498.2368666338414	1126.163994600312	1843.661879694045	543.7510062697268	1230.448556695218	2263.273418362606	1016.093329852466	1149.883234232837	2009.754679268477	587.8813738849454	1191.792462083033	2025.254880380058	612.0164671621328	1148.508823270633	2091.383710951258	572.3067889833459	1209.965562674877	2103.111129587518	598.9545673375945	1165.277159777018	2383.432764646735	548.9080946331558	1247.613546770057	2316.884400228535	543.1120925146704	1219.021779493816	2366.189450032245	657.0544329146992	1263.20690615053	2301.859971624869	650.0815508792753	1239.186717598289	
2253	15.01333333333333	2390.244286115077	991.5567880405966	970.5722900331459	2298.875362351295	36.42236610462191	1087.935229241706	2332.664178770549	51.64304250637437	1042.548996900281	2314.38113282403	84.96514937729026	1093.745132565302	2307.903093252211	1047.553438120587	941.2696139525167	2525.656600098918	46.59745794398891	1125.792160549229	2491.671370447056	44.26207049475197	1021.25713201729	2237.502616118754	1015.164933591927	1070.025508224281	2405.77606151623	156.93158920354	1029.782178993646	2359.79346342699	173.8397662581396	1053.706146592815	2419.215473114823	230.8914950812574	1002.783849066396	2374.401179951132	249.0043092176719	1026.883131587034	2455.451201746126	575.4832614748483	959.4762437226693	2398.778054857853	561.8014482011612	1004.046745920282	2410.575546518151	672.5089267275082	932.3823519592249	2353.126766258014	656.8344203407379	969.0139443772035	2436.683886077263	976.1231853918629	1176.578817680848	-321310544.4899356	66226578.78071198	-189857901.4188381	1950.518242521176	680.9487828550942	1117.532010872925	1955.949758956708	648.9387440024874	1171.057824775901	1986.113979216507	646.9437717466807	1119.853457471801	2404.828339727527	1050.346536885856	1226.527473767818	1845.167475096519	490.9310574241021	1128.901286236093	1865.794593634299	533.7625717170541	1233.692880397355	2259.205996588912	1011.18979540386	1150.690849110068	2029.801244441698	581.7637197919749	1194.235649552186	2045.090529999674	606.8931054476072	1151.605140087752	2111.589849567088	566.0372191788513	1211.854758692126	2123.053630064779	593.5588205075082	1167.751118407054	2399.762968951654	545.8384133715464	1247.676006460249	2333.365946362387	536.9178769113554	1219.700874701634	2377.505108167677	652.7367243051045	1264.144549048858	2312.97313314665	642.6695233099707	1241.384771887941	
2254	15.02	2385.971804097927	986.6458316698453	970.6649331704785	2269.381706736335	37.72099520999409	1088.608283241255	2303.114731421123	53.51909393313235	1043.448703985975	2285.368487396624	86.09426274540564	1095.308654609856	2303.725669576696	1040.681830902392	941.9845596897433	2495.736775711825	46.17311825436206	1126.17937915418	2461.789142122938	45.37636944762536	1022.033526136172	2233.750326156593	1011.461679996101	1071.100327958057	2381.77807364398	156.6679560128551	1031.709870511725	2336.118799231309	175.9714947568555	1054.622081655119	2399.299233639459	229.7330839351595	1004.27928705014	2354.883917714969	250.1628989477482	1027.424286110832	2447.491175388974	570.6401661907908	959.6053986427922	2391.103889210968	557.919068210112	1004.85973538765	2403.648106503457	668.1833367892023	932.4454931945054	2346.393183603361	653.4152603772318	969.7688629090929	2432.621642625067	971.4648349792271	1176.851189165376	-321740675.7227938	66317123.80657683	-190111486.8840239	1965.569513334967	674.5994120939495	1123.379197877452	1973.173160361205	641.2573947276873	1175.94126619536	2002.186660488632	641.6524432929294	1124.145894128947	2400.074732235046	1043.827383470687	1228.227174804149	1865.83929674877	481.5098431116652	1131.228369951753	1887.799369036832	521.7458905982913	1236.619884380457	2255.266565528454	1007.10610855443	1151.313184661919	2049.396044270818	574.8679549076055	1196.63759584713	2064.17406938163	601.1883463895738	1154.721274547437	2131.450115774053	559.7163137454407	1213.635046546299	2142.37137570041	588.2790289197875	1170.178056260888	2416.360697936344	544.7215810383941	1247.562725622297	2350.438294407375	532.6054325478931	1219.837988414936	2388.901810722395	650.0802989815486	1264.953338761916	2324.55198274369	636.8678089989118	1242.998754993631	
2255	15.02666666666667	2382.056279158555	982.4833315809941	970.5980119500603	2239.754794413057	38.78831727384425	1089.221925137199	2273.394278961915	55.1333622025324	1044.220843189663	2255.963503649545	87.04158962319818	1096.579989023988	2299.547349157854	1034.74074026082	942.7307273636043	2465.521518318316	46.57562991760765	1126.259757329088	2431.681961302316	46.65288769081725	1022.684615390825	2230.323937971477	1008.608829785671	1071.956868623769	2356.655708436527	156.5522874166839	1033.3116500143	2311.517269265863	178.0473214811767	1055.44473721316	2377.894529907843	228.6107479905631	1005.596448994076	2334.054832722329	251.1522601128281	1027.983480428909	2437.871631721534	565.7480374721482	959.8696814848901	2381.637239812408	554.2268083112134	1005.669124384629	2395.597823709097	664.0089087399577	932.6567292176034	2338.438961464774	650.4222849269219	970.5723407747291	2428.758283128807	967.6958751925742	1177.141267488311	-322171190.6342365	66407751.27936681	-190365298.0479918	1979.330368742716	666.677547451586	1129.104518047664	1989.240736359975	632.1837498083912	1180.726349725143	2017.161126191977	635.1625699536233	1128.488222523035	2394.944805734721	1038.430075927226	1229.95022392761	1886.856079277297	470.0214970221132	1133.124122955869	1909.619190080587	507.9055996842471	1239.172520993582	2251.581531610394	1003.967100662919	1151.729061903969	2068.372230471497	567.3049778707048	1198.902678480486	2082.328139317239	594.9459100835046	1157.719595062226	2150.769566860861	553.4887956865228	1215.245282200346	2160.864455834339	583.188117776974	1172.447496843239	2432.988752233749	545.6350014734368	1247.274232300261	2367.833256020557	530.3065549324841	1219.474618269394	2400.219769902817	649.1692588324075	1265.61209085828	2336.430434123625	632.8236292310338	1244.000836017196	
